<mxfile host="Electron" agent="Mozilla/5.0 (Windows NT 10.0; Win64; x64) AppleWebKit/537.36 (KHTML, like Gecko) draw.io/25.0.1 Chrome/128.0.6613.186 Electron/32.2.6 Safari/537.36" version="25.0.1">
  <diagram id="C5RBs43oDa-KdzZeNtuy" name="Page-1">
    <mxGraphModel dx="3183" dy="2011" grid="1" gridSize="10" guides="1" tooltips="1" connect="1" arrows="1" fold="1" page="1" pageScale="1" pageWidth="1000" pageHeight="1000" math="0" shadow="0">
      <root>
        <mxCell id="WIyWlLk6GJQsqaUBKTNV-0" />
        <mxCell id="WIyWlLk6GJQsqaUBKTNV-1" parent="WIyWlLk6GJQsqaUBKTNV-0" />
        <mxCell id="G9en6bb1mpxFW6z3gLwB-13" value="" style="edgeStyle=orthogonalEdgeStyle;rounded=0;orthogonalLoop=1;jettySize=auto;html=1;" edge="1" parent="WIyWlLk6GJQsqaUBKTNV-1" source="G9en6bb1mpxFW6z3gLwB-0" target="G9en6bb1mpxFW6z3gLwB-12">
          <mxGeometry relative="1" as="geometry" />
        </mxCell>
        <mxCell id="G9en6bb1mpxFW6z3gLwB-0" value="Start" style="strokeWidth=2;html=1;shape=mxgraph.flowchart.start_2;whiteSpace=wrap;" vertex="1" parent="WIyWlLk6GJQsqaUBKTNV-1">
          <mxGeometry x="460" y="90" width="80" height="80" as="geometry" />
        </mxCell>
        <mxCell id="G9en6bb1mpxFW6z3gLwB-1" value="&lt;font style=&quot;font-size: 30px;&quot;&gt;Create&lt;/font&gt;" style="text;html=1;align=center;verticalAlign=middle;resizable=0;points=[];autosize=1;strokeColor=none;fillColor=none;" vertex="1" parent="WIyWlLk6GJQsqaUBKTNV-1">
          <mxGeometry x="445" y="30" width="110" height="50" as="geometry" />
        </mxCell>
        <mxCell id="G9en6bb1mpxFW6z3gLwB-2" value="&lt;font style=&quot;font-size: 30px;&quot;&gt;List Task&lt;/font&gt;" style="text;html=1;align=center;verticalAlign=middle;resizable=0;points=[];autosize=1;strokeColor=none;fillColor=none;" vertex="1" parent="WIyWlLk6GJQsqaUBKTNV-1">
          <mxGeometry x="1430" y="30" width="140" height="50" as="geometry" />
        </mxCell>
        <mxCell id="G9en6bb1mpxFW6z3gLwB-35" value="" style="edgeStyle=orthogonalEdgeStyle;rounded=0;orthogonalLoop=1;jettySize=auto;html=1;" edge="1" parent="WIyWlLk6GJQsqaUBKTNV-1" source="G9en6bb1mpxFW6z3gLwB-3" target="G9en6bb1mpxFW6z3gLwB-34">
          <mxGeometry relative="1" as="geometry" />
        </mxCell>
        <mxCell id="G9en6bb1mpxFW6z3gLwB-3" value="Start" style="strokeWidth=2;html=1;shape=mxgraph.flowchart.start_2;whiteSpace=wrap;" vertex="1" parent="WIyWlLk6GJQsqaUBKTNV-1">
          <mxGeometry x="1460" y="80" width="80" height="80" as="geometry" />
        </mxCell>
        <mxCell id="G9en6bb1mpxFW6z3gLwB-39" value="" style="edgeStyle=orthogonalEdgeStyle;rounded=0;orthogonalLoop=1;jettySize=auto;html=1;" edge="1" parent="WIyWlLk6GJQsqaUBKTNV-1" source="G9en6bb1mpxFW6z3gLwB-6" target="G9en6bb1mpxFW6z3gLwB-38">
          <mxGeometry relative="1" as="geometry" />
        </mxCell>
        <mxCell id="G9en6bb1mpxFW6z3gLwB-6" value="Start" style="strokeWidth=2;html=1;shape=mxgraph.flowchart.start_2;whiteSpace=wrap;" vertex="1" parent="WIyWlLk6GJQsqaUBKTNV-1">
          <mxGeometry x="460" y="1110" width="80" height="80" as="geometry" />
        </mxCell>
        <mxCell id="G9en6bb1mpxFW6z3gLwB-7" value="&lt;font style=&quot;font-size: 30px;&quot;&gt;Update&lt;/font&gt;" style="text;html=1;align=center;verticalAlign=middle;resizable=0;points=[];autosize=1;strokeColor=none;fillColor=none;" vertex="1" parent="WIyWlLk6GJQsqaUBKTNV-1">
          <mxGeometry x="440" y="1050" width="120" height="50" as="geometry" />
        </mxCell>
        <mxCell id="G9en6bb1mpxFW6z3gLwB-10" value="&lt;font style=&quot;font-size: 30px;&quot;&gt;Delete&lt;/font&gt;" style="text;html=1;align=center;verticalAlign=middle;resizable=0;points=[];autosize=1;strokeColor=none;fillColor=none;" vertex="1" parent="WIyWlLk6GJQsqaUBKTNV-1">
          <mxGeometry x="1445" y="1050" width="110" height="50" as="geometry" />
        </mxCell>
        <mxCell id="G9en6bb1mpxFW6z3gLwB-11" value="Start" style="strokeWidth=2;html=1;shape=mxgraph.flowchart.start_2;whiteSpace=wrap;" vertex="1" parent="WIyWlLk6GJQsqaUBKTNV-1">
          <mxGeometry x="1460" y="1110" width="80" height="80" as="geometry" />
        </mxCell>
        <mxCell id="G9en6bb1mpxFW6z3gLwB-15" value="" style="edgeStyle=orthogonalEdgeStyle;rounded=0;orthogonalLoop=1;jettySize=auto;html=1;" edge="1" parent="WIyWlLk6GJQsqaUBKTNV-1" source="G9en6bb1mpxFW6z3gLwB-12" target="G9en6bb1mpxFW6z3gLwB-14">
          <mxGeometry relative="1" as="geometry" />
        </mxCell>
        <mxCell id="G9en6bb1mpxFW6z3gLwB-23" value="" style="edgeStyle=orthogonalEdgeStyle;rounded=0;orthogonalLoop=1;jettySize=auto;html=1;" edge="1" parent="WIyWlLk6GJQsqaUBKTNV-1" source="G9en6bb1mpxFW6z3gLwB-12" target="G9en6bb1mpxFW6z3gLwB-14">
          <mxGeometry relative="1" as="geometry" />
        </mxCell>
        <mxCell id="G9en6bb1mpxFW6z3gLwB-12" value="Create Task" style="whiteSpace=wrap;html=1;strokeWidth=2;" vertex="1" parent="WIyWlLk6GJQsqaUBKTNV-1">
          <mxGeometry x="440" y="240" width="120" height="60" as="geometry" />
        </mxCell>
        <mxCell id="G9en6bb1mpxFW6z3gLwB-17" value="" style="edgeStyle=orthogonalEdgeStyle;rounded=0;orthogonalLoop=1;jettySize=auto;html=1;" edge="1" parent="WIyWlLk6GJQsqaUBKTNV-1" source="G9en6bb1mpxFW6z3gLwB-14" target="G9en6bb1mpxFW6z3gLwB-16">
          <mxGeometry relative="1" as="geometry" />
        </mxCell>
        <mxCell id="G9en6bb1mpxFW6z3gLwB-14" value="Enter Title and description" style="whiteSpace=wrap;html=1;strokeWidth=2;" vertex="1" parent="WIyWlLk6GJQsqaUBKTNV-1">
          <mxGeometry x="440" y="380" width="120" height="60" as="geometry" />
        </mxCell>
        <mxCell id="G9en6bb1mpxFW6z3gLwB-18" style="edgeStyle=orthogonalEdgeStyle;rounded=0;orthogonalLoop=1;jettySize=auto;html=1;exitX=1;exitY=0.5;exitDx=0;exitDy=0;entryX=1;entryY=0.5;entryDx=0;entryDy=0;" edge="1" parent="WIyWlLk6GJQsqaUBKTNV-1" source="G9en6bb1mpxFW6z3gLwB-16" target="G9en6bb1mpxFW6z3gLwB-14">
          <mxGeometry relative="1" as="geometry">
            <Array as="points">
              <mxPoint x="600" y="565" />
              <mxPoint x="600" y="410" />
            </Array>
          </mxGeometry>
        </mxCell>
        <mxCell id="G9en6bb1mpxFW6z3gLwB-29" value="" style="edgeStyle=orthogonalEdgeStyle;rounded=0;orthogonalLoop=1;jettySize=auto;html=1;" edge="1" parent="WIyWlLk6GJQsqaUBKTNV-1" source="G9en6bb1mpxFW6z3gLwB-16" target="G9en6bb1mpxFW6z3gLwB-28">
          <mxGeometry relative="1" as="geometry" />
        </mxCell>
        <mxCell id="G9en6bb1mpxFW6z3gLwB-16" value="Title is empty?" style="rhombus;whiteSpace=wrap;html=1;strokeWidth=2;" vertex="1" parent="WIyWlLk6GJQsqaUBKTNV-1">
          <mxGeometry x="453" y="520" width="95" height="90" as="geometry" />
        </mxCell>
        <mxCell id="G9en6bb1mpxFW6z3gLwB-19" value="Yes" style="text;html=1;align=center;verticalAlign=middle;resizable=0;points=[];autosize=1;strokeColor=none;fillColor=none;" vertex="1" parent="WIyWlLk6GJQsqaUBKTNV-1">
          <mxGeometry x="540" y="540" width="40" height="30" as="geometry" />
        </mxCell>
        <mxCell id="G9en6bb1mpxFW6z3gLwB-20" value="Task created" style="whiteSpace=wrap;html=1;strokeWidth=2;" vertex="1" parent="WIyWlLk6GJQsqaUBKTNV-1">
          <mxGeometry x="440" y="860" width="120" height="60" as="geometry" />
        </mxCell>
        <mxCell id="G9en6bb1mpxFW6z3gLwB-22" value="No" style="text;html=1;align=center;verticalAlign=middle;resizable=0;points=[];autosize=1;strokeColor=none;fillColor=none;" vertex="1" parent="WIyWlLk6GJQsqaUBKTNV-1">
          <mxGeometry x="500" y="610" width="40" height="30" as="geometry" />
        </mxCell>
        <mxCell id="G9en6bb1mpxFW6z3gLwB-32" value="" style="edgeStyle=orthogonalEdgeStyle;rounded=0;orthogonalLoop=1;jettySize=auto;html=1;" edge="1" parent="WIyWlLk6GJQsqaUBKTNV-1" source="G9en6bb1mpxFW6z3gLwB-28" target="G9en6bb1mpxFW6z3gLwB-31">
          <mxGeometry relative="1" as="geometry" />
        </mxCell>
        <mxCell id="G9en6bb1mpxFW6z3gLwB-28" value="Assign current date to task" style="whiteSpace=wrap;html=1;strokeWidth=2;" vertex="1" parent="WIyWlLk6GJQsqaUBKTNV-1">
          <mxGeometry x="440.5" y="660" width="120" height="60" as="geometry" />
        </mxCell>
        <mxCell id="G9en6bb1mpxFW6z3gLwB-33" style="edgeStyle=orthogonalEdgeStyle;rounded=0;orthogonalLoop=1;jettySize=auto;html=1;entryX=0.5;entryY=0;entryDx=0;entryDy=0;" edge="1" parent="WIyWlLk6GJQsqaUBKTNV-1" source="G9en6bb1mpxFW6z3gLwB-31" target="G9en6bb1mpxFW6z3gLwB-20">
          <mxGeometry relative="1" as="geometry" />
        </mxCell>
        <mxCell id="G9en6bb1mpxFW6z3gLwB-31" value="Assign status pending to task" style="whiteSpace=wrap;html=1;strokeWidth=2;" vertex="1" parent="WIyWlLk6GJQsqaUBKTNV-1">
          <mxGeometry x="440.5" y="760" width="120" height="60" as="geometry" />
        </mxCell>
        <mxCell id="G9en6bb1mpxFW6z3gLwB-37" value="" style="edgeStyle=orthogonalEdgeStyle;rounded=0;orthogonalLoop=1;jettySize=auto;html=1;" edge="1" parent="WIyWlLk6GJQsqaUBKTNV-1" source="G9en6bb1mpxFW6z3gLwB-34" target="G9en6bb1mpxFW6z3gLwB-36">
          <mxGeometry relative="1" as="geometry" />
        </mxCell>
        <mxCell id="G9en6bb1mpxFW6z3gLwB-34" value="Find all task from user" style="whiteSpace=wrap;html=1;strokeWidth=2;" vertex="1" parent="WIyWlLk6GJQsqaUBKTNV-1">
          <mxGeometry x="1440" y="220" width="120" height="60" as="geometry" />
        </mxCell>
        <mxCell id="G9en6bb1mpxFW6z3gLwB-36" value="List all tasks" style="whiteSpace=wrap;html=1;strokeWidth=2;" vertex="1" parent="WIyWlLk6GJQsqaUBKTNV-1">
          <mxGeometry x="1440" y="350" width="120" height="60" as="geometry" />
        </mxCell>
        <mxCell id="G9en6bb1mpxFW6z3gLwB-41" value="" style="edgeStyle=orthogonalEdgeStyle;rounded=0;orthogonalLoop=1;jettySize=auto;html=1;" edge="1" parent="WIyWlLk6GJQsqaUBKTNV-1" source="G9en6bb1mpxFW6z3gLwB-38" target="G9en6bb1mpxFW6z3gLwB-40">
          <mxGeometry relative="1" as="geometry" />
        </mxCell>
        <mxCell id="G9en6bb1mpxFW6z3gLwB-38" value="Select task from list" style="whiteSpace=wrap;html=1;strokeWidth=2;" vertex="1" parent="WIyWlLk6GJQsqaUBKTNV-1">
          <mxGeometry x="440" y="1240" width="120" height="60" as="geometry" />
        </mxCell>
        <mxCell id="G9en6bb1mpxFW6z3gLwB-43" value="" style="edgeStyle=orthogonalEdgeStyle;rounded=0;orthogonalLoop=1;jettySize=auto;html=1;" edge="1" parent="WIyWlLk6GJQsqaUBKTNV-1" source="G9en6bb1mpxFW6z3gLwB-40" target="G9en6bb1mpxFW6z3gLwB-42">
          <mxGeometry relative="1" as="geometry" />
        </mxCell>
        <mxCell id="G9en6bb1mpxFW6z3gLwB-40" value="Shows task details" style="whiteSpace=wrap;html=1;strokeWidth=2;" vertex="1" parent="WIyWlLk6GJQsqaUBKTNV-1">
          <mxGeometry x="440.5" y="1360" width="120" height="60" as="geometry" />
        </mxCell>
        <mxCell id="G9en6bb1mpxFW6z3gLwB-45" value="" style="edgeStyle=orthogonalEdgeStyle;rounded=0;orthogonalLoop=1;jettySize=auto;html=1;" edge="1" parent="WIyWlLk6GJQsqaUBKTNV-1" source="G9en6bb1mpxFW6z3gLwB-42" target="G9en6bb1mpxFW6z3gLwB-44">
          <mxGeometry relative="1" as="geometry" />
        </mxCell>
        <mxCell id="G9en6bb1mpxFW6z3gLwB-42" value="Edit&amp;nbsp;field" style="whiteSpace=wrap;html=1;strokeWidth=2;" vertex="1" parent="WIyWlLk6GJQsqaUBKTNV-1">
          <mxGeometry x="440" y="1480" width="120" height="60" as="geometry" />
        </mxCell>
        <mxCell id="G9en6bb1mpxFW6z3gLwB-47" value="" style="edgeStyle=orthogonalEdgeStyle;rounded=0;orthogonalLoop=1;jettySize=auto;html=1;" edge="1" parent="WIyWlLk6GJQsqaUBKTNV-1" source="G9en6bb1mpxFW6z3gLwB-44" target="G9en6bb1mpxFW6z3gLwB-46">
          <mxGeometry relative="1" as="geometry" />
        </mxCell>
        <mxCell id="G9en6bb1mpxFW6z3gLwB-51" value="" style="edgeStyle=orthogonalEdgeStyle;rounded=0;orthogonalLoop=1;jettySize=auto;html=1;" edge="1" parent="WIyWlLk6GJQsqaUBKTNV-1" source="G9en6bb1mpxFW6z3gLwB-44" target="G9en6bb1mpxFW6z3gLwB-50">
          <mxGeometry relative="1" as="geometry" />
        </mxCell>
        <mxCell id="G9en6bb1mpxFW6z3gLwB-44" value="New information valid?" style="rhombus;whiteSpace=wrap;html=1;strokeWidth=2;" vertex="1" parent="WIyWlLk6GJQsqaUBKTNV-1">
          <mxGeometry x="440.5" y="1600" width="119.5" height="120" as="geometry" />
        </mxCell>
        <mxCell id="G9en6bb1mpxFW6z3gLwB-48" style="edgeStyle=orthogonalEdgeStyle;rounded=0;orthogonalLoop=1;jettySize=auto;html=1;entryX=1;entryY=0.5;entryDx=0;entryDy=0;" edge="1" parent="WIyWlLk6GJQsqaUBKTNV-1" source="G9en6bb1mpxFW6z3gLwB-46" target="G9en6bb1mpxFW6z3gLwB-42">
          <mxGeometry relative="1" as="geometry">
            <Array as="points">
              <mxPoint x="655" y="1510" />
            </Array>
          </mxGeometry>
        </mxCell>
        <mxCell id="G9en6bb1mpxFW6z3gLwB-46" value="Error message" style="whiteSpace=wrap;html=1;strokeWidth=2;" vertex="1" parent="WIyWlLk6GJQsqaUBKTNV-1">
          <mxGeometry x="620" y="1640" width="70.25" height="40" as="geometry" />
        </mxCell>
        <mxCell id="G9en6bb1mpxFW6z3gLwB-49" value="No" style="text;html=1;align=center;verticalAlign=middle;resizable=0;points=[];autosize=1;strokeColor=none;fillColor=none;" vertex="1" parent="WIyWlLk6GJQsqaUBKTNV-1">
          <mxGeometry x="555" y="1630" width="40" height="30" as="geometry" />
        </mxCell>
        <mxCell id="G9en6bb1mpxFW6z3gLwB-50" value="Save task" style="whiteSpace=wrap;html=1;strokeWidth=2;" vertex="1" parent="WIyWlLk6GJQsqaUBKTNV-1">
          <mxGeometry x="440.25" y="1770" width="120" height="60" as="geometry" />
        </mxCell>
        <mxCell id="G9en6bb1mpxFW6z3gLwB-52" value="Yes" style="text;html=1;align=center;verticalAlign=middle;resizable=0;points=[];autosize=1;strokeColor=none;fillColor=none;" vertex="1" parent="WIyWlLk6GJQsqaUBKTNV-1">
          <mxGeometry x="500" y="1720" width="40" height="30" as="geometry" />
        </mxCell>
        <mxCell id="G9en6bb1mpxFW6z3gLwB-53" value="" style="edgeStyle=orthogonalEdgeStyle;rounded=0;orthogonalLoop=1;jettySize=auto;html=1;" edge="1" parent="WIyWlLk6GJQsqaUBKTNV-1" target="G9en6bb1mpxFW6z3gLwB-55">
          <mxGeometry relative="1" as="geometry">
            <mxPoint x="1499.5" y="1190" as="sourcePoint" />
          </mxGeometry>
        </mxCell>
        <mxCell id="G9en6bb1mpxFW6z3gLwB-54" value="" style="edgeStyle=orthogonalEdgeStyle;rounded=0;orthogonalLoop=1;jettySize=auto;html=1;" edge="1" parent="WIyWlLk6GJQsqaUBKTNV-1" source="G9en6bb1mpxFW6z3gLwB-55" target="G9en6bb1mpxFW6z3gLwB-56">
          <mxGeometry relative="1" as="geometry" />
        </mxCell>
        <mxCell id="G9en6bb1mpxFW6z3gLwB-55" value="Select task from list" style="whiteSpace=wrap;html=1;strokeWidth=2;" vertex="1" parent="WIyWlLk6GJQsqaUBKTNV-1">
          <mxGeometry x="1439.5" y="1240" width="120" height="60" as="geometry" />
        </mxCell>
        <mxCell id="G9en6bb1mpxFW6z3gLwB-58" value="" style="edgeStyle=orthogonalEdgeStyle;rounded=0;orthogonalLoop=1;jettySize=auto;html=1;" edge="1" parent="WIyWlLk6GJQsqaUBKTNV-1" source="G9en6bb1mpxFW6z3gLwB-56" target="G9en6bb1mpxFW6z3gLwB-57">
          <mxGeometry relative="1" as="geometry" />
        </mxCell>
        <mxCell id="G9en6bb1mpxFW6z3gLwB-56" value="Shows task details" style="whiteSpace=wrap;html=1;strokeWidth=2;" vertex="1" parent="WIyWlLk6GJQsqaUBKTNV-1">
          <mxGeometry x="1440" y="1360" width="120" height="60" as="geometry" />
        </mxCell>
        <mxCell id="G9en6bb1mpxFW6z3gLwB-62" value="" style="edgeStyle=orthogonalEdgeStyle;rounded=0;orthogonalLoop=1;jettySize=auto;html=1;" edge="1" parent="WIyWlLk6GJQsqaUBKTNV-1" source="G9en6bb1mpxFW6z3gLwB-57" target="G9en6bb1mpxFW6z3gLwB-61">
          <mxGeometry relative="1" as="geometry" />
        </mxCell>
        <mxCell id="G9en6bb1mpxFW6z3gLwB-57" value="Press delete&amp;nbsp;button" style="whiteSpace=wrap;html=1;strokeWidth=2;" vertex="1" parent="WIyWlLk6GJQsqaUBKTNV-1">
          <mxGeometry x="1440" y="1500" width="120" height="60" as="geometry" />
        </mxCell>
        <mxCell id="G9en6bb1mpxFW6z3gLwB-64" value="" style="edgeStyle=orthogonalEdgeStyle;rounded=0;orthogonalLoop=1;jettySize=auto;html=1;" edge="1" parent="WIyWlLk6GJQsqaUBKTNV-1" source="G9en6bb1mpxFW6z3gLwB-61" target="G9en6bb1mpxFW6z3gLwB-63">
          <mxGeometry relative="1" as="geometry" />
        </mxCell>
        <mxCell id="G9en6bb1mpxFW6z3gLwB-61" value="Show warning" style="whiteSpace=wrap;html=1;strokeWidth=2;" vertex="1" parent="WIyWlLk6GJQsqaUBKTNV-1">
          <mxGeometry x="1440" y="1640" width="120" height="60" as="geometry" />
        </mxCell>
        <mxCell id="G9en6bb1mpxFW6z3gLwB-66" value="" style="edgeStyle=orthogonalEdgeStyle;rounded=0;orthogonalLoop=1;jettySize=auto;html=1;" edge="1" parent="WIyWlLk6GJQsqaUBKTNV-1" source="G9en6bb1mpxFW6z3gLwB-63" target="G9en6bb1mpxFW6z3gLwB-65">
          <mxGeometry relative="1" as="geometry" />
        </mxCell>
        <mxCell id="G9en6bb1mpxFW6z3gLwB-69" value="" style="edgeStyle=orthogonalEdgeStyle;rounded=0;orthogonalLoop=1;jettySize=auto;html=1;" edge="1" parent="WIyWlLk6GJQsqaUBKTNV-1" source="G9en6bb1mpxFW6z3gLwB-63" target="G9en6bb1mpxFW6z3gLwB-68">
          <mxGeometry relative="1" as="geometry" />
        </mxCell>
        <mxCell id="G9en6bb1mpxFW6z3gLwB-63" value="Want to delete" style="rhombus;whiteSpace=wrap;html=1;strokeWidth=2;" vertex="1" parent="WIyWlLk6GJQsqaUBKTNV-1">
          <mxGeometry x="1455" y="1770" width="90" height="90" as="geometry" />
        </mxCell>
        <mxCell id="G9en6bb1mpxFW6z3gLwB-65" value="End" style="ellipse;whiteSpace=wrap;html=1;strokeWidth=2;" vertex="1" parent="WIyWlLk6GJQsqaUBKTNV-1">
          <mxGeometry x="1630" y="1775" width="80" height="80" as="geometry" />
        </mxCell>
        <mxCell id="G9en6bb1mpxFW6z3gLwB-67" value="No" style="text;html=1;align=center;verticalAlign=middle;resizable=0;points=[];autosize=1;strokeColor=none;fillColor=none;" vertex="1" parent="WIyWlLk6GJQsqaUBKTNV-1">
          <mxGeometry x="1540" y="1785" width="40" height="30" as="geometry" />
        </mxCell>
        <mxCell id="G9en6bb1mpxFW6z3gLwB-72" value="" style="edgeStyle=orthogonalEdgeStyle;rounded=0;orthogonalLoop=1;jettySize=auto;html=1;" edge="1" parent="WIyWlLk6GJQsqaUBKTNV-1" source="G9en6bb1mpxFW6z3gLwB-68" target="G9en6bb1mpxFW6z3gLwB-71">
          <mxGeometry relative="1" as="geometry" />
        </mxCell>
        <mxCell id="G9en6bb1mpxFW6z3gLwB-68" value="Delete task from database" style="whiteSpace=wrap;html=1;strokeWidth=2;" vertex="1" parent="WIyWlLk6GJQsqaUBKTNV-1">
          <mxGeometry x="1295" y="1880" width="120" height="60" as="geometry" />
        </mxCell>
        <mxCell id="G9en6bb1mpxFW6z3gLwB-70" value="Yes" style="text;html=1;align=center;verticalAlign=middle;resizable=0;points=[];autosize=1;strokeColor=none;fillColor=none;" vertex="1" parent="WIyWlLk6GJQsqaUBKTNV-1">
          <mxGeometry x="1415" y="1785" width="40" height="30" as="geometry" />
        </mxCell>
        <mxCell id="G9en6bb1mpxFW6z3gLwB-71" value="Show confirmation message" style="whiteSpace=wrap;html=1;strokeWidth=2;" vertex="1" parent="WIyWlLk6GJQsqaUBKTNV-1">
          <mxGeometry x="1495" y="1880" width="120" height="60" as="geometry" />
        </mxCell>
      </root>
    </mxGraphModel>
  </diagram>
</mxfile>
